<svg width="208.640884" height="48.000000" viewBox="0 0 208.641 48" fill="none" xmlns="http://www.w3.org/2000/svg" xmlns:xlink="http://www.w3.org/1999/xlink">
	<desc>
			Created with Pixso.
	</desc>
	<defs/>
	<path d="M94.651 32.9525C92.9384 32.9525 91.3859 32.5834 89.9934 31.8453Q88.8147 31.1995 87.9176 30.2792Q87.2433 29.5873 86.7282 28.7405Q86.4597 28.2844 86.2524 27.802Q85.5518 26.1714 85.5518 24.2396Q85.5518 22.2461 86.2979 20.5885Q86.4887 20.1647 86.7282 19.7628Q87.3062 18.801 88.0845 18.0457Q88.9228 17.2321 89.9934 16.658Q90.3019 16.4908 90.6215 16.3484Q92.4651 15.5267 94.6751 15.5267Q96.8598 15.5267 98.6125 16.2969Q99.7529 16.7913 100.656 17.5634Q101.16 17.9941 101.59 18.5112L99.0926 20.8219Q98.157 19.7385 96.9754 19.2499Q96.0043 18.8483 94.8671 18.8483Q93.5032 18.8483 92.3961 19.3813Q92.2364 19.4583 92.0821 19.5463Q91.5098 19.8612 91.0528 20.2972Q90.5322 20.7939 90.1615 21.4476Q90.1162 21.5304 90.0739 21.6146L90.0735 21.6154Q89.4892 22.781 89.4892 24.2396Q89.4892 25.6981 90.0735 26.8638Q90.1159 26.9485 90.1615 27.0316C90.6256 27.8499 91.2659 28.4917 92.0821 28.957Q92.1741 29.0077 92.2681 29.0546Q93.4238 29.631 94.8671 29.631Q95.981 29.631 96.9355 29.241Q98.1412 28.7483 99.0926 27.6333L101.59 29.9438C100.789 30.9227 99.7969 31.6688 98.6125 32.1823Q96.8358 32.9525 94.651 32.9525ZM181.637 32.9525C179.893 32.9525 178.316 32.5754 176.908 31.8213C175.515 31.0671 174.419 30.0321 173.618 28.7164Q173.311 28.1942 173.084 27.6392Q172.442 26.0707 172.442 24.2396Q172.442 22.3448 173.129 20.7452Q173.341 20.2521 173.618 19.7869C174.419 18.4551 175.515 17.4121 176.908 16.658C178.316 15.9038 179.893 15.5267 181.637 15.5267C183.382 15.5267 184.95 15.9038 186.343 16.658C187.735 17.4121 188.832 18.4551 189.632 19.7869C190.432 21.1027 190.833 22.5869 190.833 24.2396C190.833 25.8923 190.432 27.3845 189.632 28.7164C188.832 30.0321 187.735 31.0671 186.343 31.8213C184.95 32.5754 183.382 32.9525 181.637 32.9525ZM111.542 32.9525Q108.381 32.9525 106.441 31.4136L106.441 31.4135Q106.171 31.1991 105.924 30.9547Q105.763 30.7935 105.615 30.6208L105.615 30.6206Q103.931 28.6575 103.931 25.2505L103.931 15.8156L107.821 15.8156L107.821 25.1061Q107.821 27.7913 109.14 28.8831Q110.043 29.631 111.566 29.631Q113.065 29.631 113.98 28.9004Q114.179 28.7415 114.351 28.5479Q115.311 27.4408 115.311 25.1061L115.311 15.8156L119.153 15.8156L119.153 25.2505Q119.153 28.6105 117.495 30.5663L117.495 30.5663Q117.325 30.7679 117.136 30.9547C115.807 32.2866 113.943 32.9525 111.542 32.9525ZM135.336 23.9026C136.297 24.2075 137.049 24.7209 137.593 25.443C138.137 26.149 138.41 27.0236 138.41 28.0665C138.41 29.5427 137.833 30.682 136.681 31.4843C135.545 32.2705 133.88 32.6637 131.687 32.6637L122.996 32.6637L122.996 15.8156L131.207 15.8156C133.256 15.8156 134.824 16.2086 135.913 16.9949Q136.752 17.5928 137.166 18.407Q137.569 19.1991 137.569 20.196C137.569 21.0144 137.369 21.7445 136.969 22.3864C136.585 23.0282 136.041 23.5336 135.336 23.9026ZM152.422 29.0533L144.619 29.0533L143.131 32.6637L139.145 32.6637L146.636 15.8156L150.477 15.8156L157.992 32.6637L153.911 32.6637L152.422 29.0533ZM162.373 18.9927L156.995 18.9927L156.995 15.8156L171.64 15.8156L171.64 18.9927L166.262 18.9927L166.262 32.6637L162.373 32.6637L162.373 18.9927ZM204.463 32.6637L201.222 27.9702L197.645 27.9702L197.645 32.6637L193.756 32.6637L193.756 15.8156L201.03 15.8156C202.519 15.8156 203.807 16.0642 204.896 16.5616C206 17.0591 206.848 17.7651 207.44 18.6797Q207.521 18.8047 207.595 18.934L207.596 18.9353Q208.329 20.2236 208.329 21.929Q208.329 23.5667 207.635 24.8197Q207.533 25.0031 207.416 25.1782C206.824 26.0769 205.976 26.7668 204.872 27.2482L208.641 32.6637L204.463 32.6637ZM126.861 18.752L126.861 22.7233L130.727 22.7233C131.687 22.7233 132.415 22.5548 132.912 22.2178C133.408 21.8809 133.656 21.3834 133.656 20.7256C133.656 20.0677 133.408 19.5782 132.912 19.2573C132.415 18.9204 131.687 18.752 130.727 18.752L126.861 18.752ZM181.637 29.631C182.63 29.631 183.526 29.4064 184.326 28.957C185.127 28.4917 185.751 27.8499 186.199 27.0316C186.663 26.2133 186.895 25.2826 186.895 24.2396C186.895 23.1967 186.663 22.266 186.199 21.4476C185.751 20.6293 185.127 19.9955 184.326 19.5463C183.526 19.0809 182.63 18.8483 181.637 18.8483Q180.518 18.8483 179.561 19.243Q179.246 19.3732 178.948 19.5463C178.148 19.9955 177.516 20.6293 177.052 21.4476C176.604 22.266 176.379 23.1967 176.379 24.2396C176.379 25.2826 176.604 26.2133 177.052 27.0316C177.516 27.8499 178.148 28.4917 178.948 28.957Q179.19 29.0929 179.444 29.2014Q180.449 29.631 181.637 29.631ZM204.391 21.929C204.391 20.9823 204.087 20.2603 203.479 19.7628C202.871 19.2494 201.983 18.9927 200.814 18.9927L197.645 18.9927L197.645 24.8654L200.814 24.8654C201.983 24.8654 202.871 24.6086 203.479 24.0952C204.087 23.5817 204.391 22.8596 204.391 21.929ZM151.198 26.0929L148.533 19.6425L145.868 26.0929L151.198 26.0929ZM131.399 29.7273C132.423 29.7273 133.192 29.5588 133.704 29.2218C134.232 28.8849 134.496 28.3634 134.496 27.6573C134.496 26.2614 133.464 25.5634 131.399 25.5634L126.861 25.5634L126.861 29.7273L131.399 29.7273Z" fill="#FFFFFF" fill-opacity="1.000000" fill-rule="evenodd"/>
	<path d="M3.8833 15.8413L0 15.8413L0 32.6334L3.8833 32.6334L3.8833 15.8413ZM5.97177 19.0078L11.3413 19.0078L11.3413 32.6334L15.2246 32.6334L15.2246 19.0078L20.5941 19.0078L20.5941 15.8413L5.97177 15.8413L5.97177 19.0078Z" fill="#FFFFFF" fill-opacity="1.000000" fill-rule="evenodd"/>
	<path d="M48.8764 15.8413L44.9877 15.8413L44.9877 32.6334L48.8764 32.6334L48.8764 15.8413ZM68.2748 32.6334L68.2748 15.8413L64.4341 15.8413L64.4341 26.0365L56.0806 15.8413L52.8641 15.8413L52.8641 32.6334L56.7047 32.6334L56.7047 22.4382L65.0822 32.6334L68.2748 32.6334Z" fill="#FFFFFF" fill-opacity="1.000000" fill-rule="evenodd"/>
	<path d="M46.6492 8.7113C48.0927 8.7113 49.2631 9.88171 49.2631 11.3252C49.2631 12.7687 48.0927 13.939 46.6492 13.939C45.2058 13.939 44.0354 12.7687 44.0354 11.3252C44.0354 9.88171 45.2058 8.7113 46.6492 8.7113Z" fill="#FF0808" fill-opacity="1.000000" fill-rule="evenodd"/>
	<path d="M25.9899 21.3861C27.4775 21.3861 28.683 22.5562 28.683 24C28.683 25.4437 27.4775 26.6138 25.9899 26.6138C24.5024 26.6138 23.2969 25.4437 23.2969 24C23.2969 22.5562 24.5024 21.3861 25.9899 21.3861Z" fill="#FFFFFF" fill-opacity="1.000000" fill-rule="evenodd"/>
	<path d="M56.6373 46C68.7876 46 78.6373 36.1503 78.6373 24C78.6373 11.8497 68.7876 2 56.6373 2C44.4871 2 34.6373 11.8497 34.6373 24C34.6373 36.1503 44.4871 46 56.6373 46ZM56.6373 48C69.8922 48 80.6373 37.2549 80.6373 24C80.6373 10.7451 69.8922 0 56.6373 0C43.3825 0 32.6373 10.7451 32.6373 24C32.6373 37.2549 43.3825 48 56.6373 48Z" fill="#FFFFFF" fill-opacity="1.000000" fill-rule="evenodd"/>
</svg>
